<svg xmlns="http://www.w3.org/2000/svg" width="1280" height="520" viewBox="0 0 1280 520" role="img" aria-labelledby="title desc">
  <title id="title">PitchMind Football AI Analysis Engine</title>
  <desc id="desc">A deep-blue technology style brand cover for PitchMind, a football AI analysis engine.</desc>
  <defs>
    <linearGradient id="bg" x1="0" y1="0" x2="1" y2="1">
      <stop offset="0" stop-color="#06152d"/>
      <stop offset="0.55" stop-color="#0b2a5c"/>
      <stop offset="1" stop-color="#07101f"/>
    </linearGradient>
    <radialGradient id="glow" cx="70%" cy="35%" r="55%">
      <stop offset="0" stop-color="#42d9ff" stop-opacity="0.48"/>
      <stop offset="0.45" stop-color="#1b7cff" stop-opacity="0.18"/>
      <stop offset="1" stop-color="#06152d" stop-opacity="0"/>
    </radialGradient>
    <linearGradient id="line" x1="0" y1="0" x2="1" y2="0">
      <stop offset="0" stop-color="#2de2e6" stop-opacity="0"/>
      <stop offset="0.5" stop-color="#2de2e6" stop-opacity="0.85"/>
      <stop offset="1" stop-color="#7c5cff" stop-opacity="0"/>
    </linearGradient>
    <filter id="soft" x="-20%" y="-20%" width="140%" height="140%">
      <feGaussianBlur stdDeviation="10"/>
    </filter>
  </defs>
  <rect width="1280" height="520" fill="url(#bg)"/>
  <rect width="1280" height="520" fill="url(#glow)"/>
  <g opacity="0.28">
    <path d="M0 96 H1280 M0 184 H1280 M0 272 H1280 M0 360 H1280 M0 448 H1280" stroke="#5bbcff" stroke-width="1"/>
    <path d="M96 0 V520 M224 0 V520 M352 0 V520 M480 0 V520 M608 0 V520 M736 0 V520 M864 0 V520 M992 0 V520 M1120 0 V520" stroke="#335f9f" stroke-width="1"/>
  </g>
  <g transform="translate(790 88)" opacity="0.95">
    <circle cx="180" cy="170" r="142" fill="none" stroke="#2de2e6" stroke-width="3" opacity="0.6"/>
    <circle cx="180" cy="170" r="98" fill="none" stroke="#7c5cff" stroke-width="2" opacity="0.7"/>
    <path d="M78 170 C116 94 246 82 292 164 C240 218 146 228 78 170Z" fill="none" stroke="#d3f8ff" stroke-width="3" opacity="0.75"/>
    <path d="M180 28 L180 312 M38 170 L322 170 M82 84 L278 256 M278 84 L82 256" stroke="#4bd3ff" stroke-width="1.5" opacity="0.42"/>
    <circle cx="180" cy="170" r="36" fill="#06152d" stroke="#d3f8ff" stroke-width="3"/>
    <path d="M180 134 L214 158 L202 198 H158 L146 158Z" fill="none" stroke="#d3f8ff" stroke-width="3"/>
    <circle cx="180" cy="170" r="164" fill="#2de2e6" opacity="0.12" filter="url(#soft)"/>
  </g>
  <g opacity="0.85">
    <path d="M72 410 C210 342 292 450 430 382 S650 334 770 384" fill="none" stroke="url(#line)" stroke-width="4"/>
    <circle cx="210" cy="342" r="5" fill="#2de2e6"/>
    <circle cx="430" cy="382" r="5" fill="#2de2e6"/>
    <circle cx="650" cy="334" r="5" fill="#8ea7ff"/>
  </g>
  <g font-family="Inter, ui-sans-serif, system-ui, -apple-system, BlinkMacSystemFont, Segoe UI, sans-serif">
    <text x="76" y="180" fill="#eef8ff" font-size="76" font-weight="800" letter-spacing="-2">PitchMind</text>
    <text x="80" y="236" fill="#76ddff" font-size="32" font-weight="650" letter-spacing="1.5">Football AI Analysis Engine</text>
    <text x="82" y="294" fill="#c8d8f5" font-size="20">Local-first desktop beta for football research</text>
    <text x="82" y="322" fill="#c8d8f5" font-size="20">Structured reports with data-quality aware analysis</text>
    <g transform="translate(82 336)">
      <rect x="0" y="0" rx="18" ry="18" width="190" height="42" fill="#123d79" stroke="#45caff" opacity="0.92"/>
      <text x="20" y="28" fill="#eef8ff" font-size="17" font-weight="700">Desktop Beta</text>
      <rect x="212" y="0" rx="18" ry="18" width="210" height="42" fill="#102849" stroke="#7c5cff" opacity="0.92"/>
      <text x="232" y="28" fill="#eef8ff" font-size="17" font-weight="700">Unsigned Preview</text>
    </g>
  </g>
</svg>
